<svg width="173" height="32" viewBox="0 0 173 32" fill="none" xmlns="http://www.w3.org/2000/svg">
<path d="M13.6477 8.43941C13.5568 7.52274 13.1667 6.81062 12.4773 6.30304C11.7879 5.79547 10.8523 5.54168 9.67045 5.54168C8.86742 5.54168 8.18939 5.65531 7.63636 5.88259C7.08333 6.10228 6.65909 6.4091 6.36364 6.80304C6.07576 7.19698 5.93182 7.64395 5.93182 8.14395C5.91667 8.56062 6.00379 8.92425 6.19318 9.23486C6.39015 9.54547 6.65909 9.81441 7 10.0417C7.34091 10.2614 7.73485 10.4546 8.18182 10.6212C8.62879 10.7803 9.10606 10.9167 9.61364 11.0303L11.7045 11.5303C12.7197 11.7576 13.6515 12.0606 14.5 12.4394C15.3485 12.8182 16.0833 13.2841 16.7045 13.8371C17.3258 14.3902 17.8068 15.0417 18.1477 15.7917C18.4962 16.5417 18.6742 17.4015 18.6818 18.3712C18.6742 19.7955 18.3106 21.0303 17.5909 22.0758C16.8788 23.1136 15.8485 23.9205 14.5 24.4962C13.1591 25.0644 11.5417 25.3485 9.64773 25.3485C7.76894 25.3485 6.13258 25.0606 4.73864 24.4849C3.35227 23.9091 2.26894 23.0568 1.48864 21.928C0.715909 20.7917 0.310606 19.3864 0.272727 17.7121H5.03409C5.08712 18.4924 5.31061 19.144 5.70455 19.6667C6.10606 20.1818 6.64015 20.572 7.30682 20.8371C7.98106 21.0947 8.74242 21.2235 9.59091 21.2235C10.4242 21.2235 11.1477 21.1023 11.7614 20.8599C12.3826 20.6174 12.8636 20.2803 13.2045 19.8485C13.5455 19.4167 13.7159 18.9205 13.7159 18.3599C13.7159 17.8371 13.5606 17.3977 13.25 17.0417C12.947 16.6856 12.5 16.3826 11.9091 16.1326C11.3258 15.8826 10.6098 15.6553 9.76136 15.4508L7.22727 14.8144C5.26515 14.3371 3.71591 13.5909 2.57955 12.5758C1.44318 11.5606 0.878788 10.1932 0.886364 8.4735C0.878788 7.0644 1.25379 5.83334 2.01136 4.78032C2.77652 3.72728 3.82576 2.90531 5.15909 2.31441C6.49242 1.7235 8.00758 1.42804 9.70455 1.42804C11.4318 1.42804 12.9394 1.7235 14.2273 2.31441C15.5227 2.90531 16.5303 3.72728 17.25 4.78032C17.9697 5.83334 18.3409 7.05304 18.3636 8.43941H13.6477ZM29.8551 25.3599C28.0597 25.3599 26.5142 24.9962 25.2188 24.269C23.9309 23.5341 22.9384 22.4962 22.2415 21.1553C21.5445 19.8068 21.196 18.2121 21.196 16.3712C21.196 14.5758 21.5445 13 22.2415 11.644C22.9384 10.2879 23.9195 9.23107 25.1847 8.4735C26.4574 7.71592 27.9498 7.33713 29.6619 7.33713C30.8134 7.33713 31.8854 7.52274 32.8778 7.89395C33.8778 8.25759 34.7491 8.80683 35.4915 9.54168C36.2415 10.2765 36.8248 11.2008 37.2415 12.3144C37.6581 13.4205 37.8665 14.7159 37.8665 16.2008V17.5303H23.1278V14.5303H33.3097C33.3097 13.8333 33.1581 13.2159 32.8551 12.678C32.5521 12.1402 32.1316 11.7197 31.5938 11.4167C31.0634 11.1061 30.446 10.9508 29.7415 10.9508C29.0066 10.9508 28.3551 11.1212 27.7869 11.4621C27.2263 11.7955 26.7869 12.2462 26.4688 12.8144C26.1506 13.375 25.9877 14 25.9801 14.6894V17.5417C25.9801 18.4053 26.1392 19.1515 26.4574 19.7803C26.7831 20.4091 27.2415 20.894 27.8324 21.2349C28.4233 21.5758 29.1241 21.7462 29.9347 21.7462C30.4725 21.7462 30.965 21.6705 31.4119 21.519C31.8589 21.3674 32.2415 21.1402 32.5597 20.8371C32.8778 20.5341 33.1203 20.1629 33.2869 19.7235L37.7642 20.019C37.5369 21.0947 37.071 22.0341 36.3665 22.8371C35.6695 23.6326 34.768 24.2538 33.6619 24.7008C32.5634 25.1402 31.2945 25.3599 29.8551 25.3599ZM45.8665 1.74622V25.019H41.0256V1.74622H45.8665ZM59.1307 7.56441V11.2008H48.358V7.56441H59.1307ZM50.8239 25.019V6.30304C50.8239 5.03789 51.0701 3.98865 51.5625 3.15531C52.0625 2.32198 52.7443 1.69698 53.608 1.28031C54.4716 0.863647 55.4527 0.655313 56.5511 0.655313C57.2936 0.655313 57.9716 0.712132 58.5852 0.825769C59.2064 0.939405 59.6686 1.04168 59.9716 1.13259L59.108 4.76895C58.9186 4.70834 58.6837 4.65153 58.4034 4.5985C58.1307 4.54547 57.8504 4.51895 57.5625 4.51895C56.8504 4.51895 56.3542 4.68562 56.0739 5.01895C55.7936 5.34471 55.6534 5.80304 55.6534 6.39395V25.019H50.8239Z" fill="#2D4059"/>
<path d="M76.554 1.74622H81.4744V16.8599C81.4744 18.5568 81.0691 20.0417 80.2585 21.3144C79.4555 22.5871 78.3305 23.5796 76.8835 24.2917C75.4366 24.9962 73.7509 25.3485 71.8267 25.3485C69.8949 25.3485 68.2055 24.9962 66.7585 24.2917C65.3116 23.5796 64.1866 22.5871 63.3835 21.3144C62.5805 20.0417 62.179 18.5568 62.179 16.8599V1.74622H67.0994V16.4394C67.0994 17.3258 67.2926 18.1136 67.679 18.803C68.0729 19.4924 68.6259 20.0341 69.3381 20.428C70.0502 20.822 70.8797 21.019 71.8267 21.019C72.7813 21.019 73.6108 20.822 74.3153 20.428C75.0275 20.0341 75.5767 19.4924 75.9631 18.803C76.357 18.1136 76.554 17.3258 76.554 16.4394V1.74622ZM85.4318 31.5644V7.56441H90.2045V10.4962H90.4205C90.6326 10.0265 90.9394 9.54925 91.3409 9.06441C91.75 8.57198 92.2803 8.16289 92.9318 7.83713C93.5909 7.5038 94.4091 7.33713 95.3864 7.33713C96.6591 7.33713 97.8333 7.67047 98.9091 8.33713C99.9848 8.99622 100.845 9.99244 101.489 11.3258C102.133 12.6515 102.455 14.3144 102.455 16.3144C102.455 18.2614 102.14 19.9053 101.511 21.2462C100.89 22.5796 100.042 23.5909 98.9659 24.2803C97.8977 24.9621 96.7008 25.303 95.375 25.303C94.4356 25.303 93.6364 25.1477 92.9773 24.8371C92.3258 24.5265 91.7917 24.1364 91.375 23.6667C90.9583 23.1894 90.6402 22.7083 90.4205 22.2235H90.2727V31.5644H85.4318ZM90.1705 16.2917C90.1705 17.3296 90.3144 18.2349 90.6023 19.0076C90.8902 19.7803 91.3068 20.3826 91.8523 20.8144C92.3977 21.2386 93.0606 21.4508 93.8409 21.4508C94.6288 21.4508 95.2955 21.2349 95.8409 20.803C96.3864 20.3636 96.7992 19.7576 97.0795 18.9849C97.3674 18.2046 97.5114 17.3068 97.5114 16.2917C97.5114 15.2841 97.3712 14.3977 97.0909 13.6326C96.8106 12.8674 96.3977 12.269 95.8523 11.8371C95.3068 11.4053 94.6364 11.1894 93.8409 11.1894C93.053 11.1894 92.3864 11.3977 91.8409 11.8144C91.303 12.2311 90.8902 12.822 90.6023 13.5871C90.3144 14.3523 90.1705 15.2538 90.1705 16.2917ZM112.114 25.303C110.788 25.303 109.587 24.9621 108.511 24.2803C107.443 23.5909 106.595 22.5796 105.966 21.2462C105.345 19.9053 105.034 18.2614 105.034 16.3144C105.034 14.3144 105.356 12.6515 106 11.3258C106.644 9.99244 107.5 8.99622 108.568 8.33713C109.644 7.67047 110.822 7.33713 112.102 7.33713C113.08 7.33713 113.894 7.5038 114.545 7.83713C115.205 8.16289 115.735 8.57198 116.136 9.06441C116.545 9.54925 116.856 10.0265 117.068 10.4962H117.216V1.74622H122.045V25.019H117.273V22.2235H117.068C116.841 22.7083 116.519 23.1894 116.102 23.6667C115.693 24.1364 115.159 24.5265 114.5 24.8371C113.848 25.1477 113.053 25.303 112.114 25.303ZM113.648 21.4508C114.428 21.4508 115.087 21.2386 115.625 20.8144C116.17 20.3826 116.587 19.7803 116.875 19.0076C117.17 18.2349 117.318 17.3296 117.318 16.2917C117.318 15.2538 117.174 14.3523 116.886 13.5871C116.598 12.822 116.182 12.2311 115.636 11.8144C115.091 11.3977 114.428 11.1894 113.648 11.1894C112.852 11.1894 112.182 11.4053 111.636 11.8371C111.091 12.269 110.678 12.8674 110.398 13.6326C110.117 14.3977 109.977 15.2841 109.977 16.2917C109.977 17.3068 110.117 18.2046 110.398 18.9849C110.686 19.7576 111.098 20.3636 111.636 20.803C112.182 21.2349 112.852 21.4508 113.648 21.4508ZM131.003 25.3485C129.889 25.3485 128.897 25.1553 128.026 24.769C127.154 24.375 126.465 23.7955 125.957 23.0303C125.457 22.2576 125.207 21.2955 125.207 20.144C125.207 19.1743 125.385 18.3599 125.741 17.7008C126.098 17.0417 126.582 16.5114 127.196 16.1099C127.81 15.7083 128.507 15.4053 129.287 15.2008C130.075 14.9962 130.901 14.8523 131.764 14.769C132.779 14.6629 133.598 14.5644 134.219 14.4735C134.84 14.375 135.291 14.2311 135.571 14.0417C135.851 13.8523 135.991 13.572 135.991 13.2008V13.1326C135.991 12.4129 135.764 11.8561 135.31 11.4621C134.863 11.0682 134.226 10.8712 133.401 10.8712C132.529 10.8712 131.836 11.0644 131.321 11.4508C130.806 11.8296 130.465 12.3068 130.298 12.8826L125.821 12.519C126.048 11.4583 126.495 10.5417 127.162 9.76895C127.829 8.98865 128.688 8.39016 129.741 7.9735C130.802 7.54925 132.029 7.33713 133.423 7.33713C134.393 7.33713 135.321 7.45077 136.207 7.67804C137.101 7.90531 137.893 8.25759 138.582 8.73486C139.279 9.21213 139.829 9.82577 140.23 10.5758C140.632 11.3182 140.832 12.2083 140.832 13.2462V25.019H136.241V22.5985H136.105C135.825 23.144 135.45 23.625 134.98 24.0417C134.51 24.4508 133.946 24.7727 133.287 25.0076C132.628 25.2349 131.866 25.3485 131.003 25.3485ZM132.389 22.0076C133.101 22.0076 133.73 21.8674 134.276 21.5871C134.821 21.2993 135.249 20.9129 135.56 20.428C135.87 19.9432 136.026 19.394 136.026 18.7803V16.928C135.874 17.0265 135.666 17.1174 135.401 17.2008C135.143 17.2765 134.851 17.3485 134.526 17.4167C134.2 17.4773 133.874 17.5341 133.548 17.5871C133.223 17.6326 132.927 17.6743 132.662 17.7121C132.094 17.7955 131.598 17.928 131.173 18.1099C130.749 18.2917 130.42 18.5379 130.185 18.8485C129.95 19.1515 129.832 19.5303 129.832 19.9849C129.832 20.644 130.071 21.1477 130.548 21.4962C131.033 21.8371 131.647 22.0076 132.389 22.0076ZM153.872 7.56441V11.2008H143.361V7.56441H153.872ZM145.747 3.38259H150.588V19.6553C150.588 20.1023 150.656 20.4508 150.793 20.7008C150.929 20.9432 151.118 21.1136 151.361 21.2121C151.611 21.3106 151.899 21.3599 152.224 21.3599C152.452 21.3599 152.679 21.3409 152.906 21.303C153.134 21.2576 153.308 21.2235 153.429 21.2008L154.19 24.803C153.948 24.8788 153.607 24.9659 153.168 25.0644C152.728 25.1705 152.194 25.2349 151.565 25.2576C150.399 25.303 149.376 25.1477 148.497 24.7917C147.626 24.4356 146.948 23.8826 146.463 23.1326C145.978 22.3826 145.74 21.4356 145.747 20.2917V3.38259ZM164.793 25.3599C162.997 25.3599 161.452 24.9962 160.156 24.269C158.868 23.5341 157.876 22.4962 157.179 21.1553C156.482 19.8068 156.134 18.2121 156.134 16.3712C156.134 14.5758 156.482 13 157.179 11.644C157.876 10.2879 158.857 9.23107 160.122 8.4735C161.395 7.71592 162.887 7.33713 164.599 7.33713C165.751 7.33713 166.823 7.52274 167.815 7.89395C168.815 8.25759 169.687 8.80683 170.429 9.54168C171.179 10.2765 171.762 11.2008 172.179 12.3144C172.596 13.4205 172.804 14.7159 172.804 16.2008V17.5303H158.065V14.5303H168.247C168.247 13.8333 168.096 13.2159 167.793 12.678C167.49 12.1402 167.069 11.7197 166.531 11.4167C166.001 11.1061 165.384 10.9508 164.679 10.9508C163.944 10.9508 163.293 11.1212 162.724 11.4621C162.164 11.7955 161.724 12.2462 161.406 12.8144C161.088 13.375 160.925 14 160.918 14.6894V17.5417C160.918 18.4053 161.077 19.1515 161.395 19.7803C161.721 20.4091 162.179 20.894 162.77 21.2349C163.361 21.5758 164.062 21.7462 164.872 21.7462C165.41 21.7462 165.902 21.6705 166.349 21.519C166.796 21.3674 167.179 21.1402 167.497 20.8371C167.815 20.5341 168.058 20.1629 168.224 19.7235L172.702 20.019C172.474 21.0947 172.009 22.0341 171.304 22.8371C170.607 23.6326 169.705 24.2538 168.599 24.7008C167.501 25.1402 166.232 25.3599 164.793 25.3599Z" fill="#EF193F"/>
<path d="M76.554 1.74622H81.4744V16.8599C81.4744 18.5568 81.0691 20.0417 80.2585 21.3144C79.4555 22.5871 78.3305 23.5796 76.8835 24.2917C75.4366 24.9962 73.7509 25.3485 71.8267 25.3485C69.8949 25.3485 68.2055 24.9962 66.7585 24.2917C65.3116 23.5796 64.1866 22.5871 63.3835 21.3144C62.5805 20.0417 62.179 18.5568 62.179 16.8599V1.74622H67.0994V16.4394C67.0994 17.3258 67.2926 18.1136 67.679 18.803C68.0729 19.4924 68.6259 20.0341 69.3381 20.428C70.0502 20.822 70.8797 21.019 71.8267 21.019C72.7813 21.019 73.6108 20.822 74.3153 20.428C75.0275 20.0341 75.5767 19.4924 75.9631 18.803C76.357 18.1136 76.554 17.3258 76.554 16.4394V1.74622ZM85.4318 31.5644V7.56441H90.2045V10.4962H90.4205C90.6326 10.0265 90.9394 9.54925 91.3409 9.06441C91.75 8.57198 92.2803 8.16289 92.9318 7.83713C93.5909 7.5038 94.4091 7.33713 95.3864 7.33713C96.6591 7.33713 97.8333 7.67047 98.9091 8.33713C99.9848 8.99622 100.845 9.99244 101.489 11.3258C102.133 12.6515 102.455 14.3144 102.455 16.3144C102.455 18.2614 102.14 19.9053 101.511 21.2462C100.89 22.5796 100.042 23.5909 98.9659 24.2803C97.8977 24.9621 96.7008 25.303 95.375 25.303C94.4356 25.303 93.6364 25.1477 92.9773 24.8371C92.3258 24.5265 91.7917 24.1364 91.375 23.6667C90.9583 23.1894 90.6402 22.7083 90.4205 22.2235H90.2727V31.5644H85.4318ZM90.1705 16.2917C90.1705 17.3296 90.3144 18.2349 90.6023 19.0076C90.8902 19.7803 91.3068 20.3826 91.8523 20.8144C92.3977 21.2386 93.0606 21.4508 93.8409 21.4508C94.6288 21.4508 95.2955 21.2349 95.8409 20.803C96.3864 20.3636 96.7992 19.7576 97.0795 18.9849C97.3674 18.2046 97.5114 17.3068 97.5114 16.2917C97.5114 15.2841 97.3712 14.3977 97.0909 13.6326C96.8106 12.8674 96.3977 12.269 95.8523 11.8371C95.3068 11.4053 94.6364 11.1894 93.8409 11.1894C93.053 11.1894 92.3864 11.3977 91.8409 11.8144C91.303 12.2311 90.8902 12.822 90.6023 13.5871C90.3144 14.3523 90.1705 15.2538 90.1705 16.2917ZM112.114 25.303C110.788 25.303 109.587 24.9621 108.511 24.2803C107.443 23.5909 106.595 22.5796 105.966 21.2462C105.345 19.9053 105.034 18.2614 105.034 16.3144C105.034 14.3144 105.356 12.6515 106 11.3258C106.644 9.99244 107.5 8.99622 108.568 8.33713C109.644 7.67047 110.822 7.33713 112.102 7.33713C113.08 7.33713 113.894 7.5038 114.545 7.83713C115.205 8.16289 115.735 8.57198 116.136 9.06441C116.545 9.54925 116.856 10.0265 117.068 10.4962H117.216V1.74622H122.045V25.019H117.273V22.2235H117.068C116.841 22.7083 116.519 23.1894 116.102 23.6667C115.693 24.1364 115.159 24.5265 114.5 24.8371C113.848 25.1477 113.053 25.303 112.114 25.303ZM113.648 21.4508C114.428 21.4508 115.087 21.2386 115.625 20.8144C116.17 20.3826 116.587 19.7803 116.875 19.0076C117.17 18.2349 117.318 17.3296 117.318 16.2917C117.318 15.2538 117.174 14.3523 116.886 13.5871C116.598 12.822 116.182 12.2311 115.636 11.8144C115.091 11.3977 114.428 11.1894 113.648 11.1894C112.852 11.1894 112.182 11.4053 111.636 11.8371C111.091 12.269 110.678 12.8674 110.398 13.6326C110.117 14.3977 109.977 15.2841 109.977 16.2917C109.977 17.3068 110.117 18.2046 110.398 18.9849C110.686 19.7576 111.098 20.3636 111.636 20.803C112.182 21.2349 112.852 21.4508 113.648 21.4508ZM131.003 25.3485C129.889 25.3485 128.897 25.1553 128.026 24.769C127.154 24.375 126.465 23.7955 125.957 23.0303C125.457 22.2576 125.207 21.2955 125.207 20.144C125.207 19.1743 125.385 18.3599 125.741 17.7008C126.098 17.0417 126.582 16.5114 127.196 16.1099C127.81 15.7083 128.507 15.4053 129.287 15.2008C130.075 14.9962 130.901 14.8523 131.764 14.769C132.779 14.6629 133.598 14.5644 134.219 14.4735C134.84 14.375 135.291 14.2311 135.571 14.0417C135.851 13.8523 135.991 13.572 135.991 13.2008V13.1326C135.991 12.4129 135.764 11.8561 135.31 11.4621C134.863 11.0682 134.226 10.8712 133.401 10.8712C132.529 10.8712 131.836 11.0644 131.321 11.4508C130.806 11.8296 130.465 12.3068 130.298 12.8826L125.821 12.519C126.048 11.4583 126.495 10.5417 127.162 9.76895C127.829 8.98865 128.688 8.39016 129.741 7.9735C130.802 7.54925 132.029 7.33713 133.423 7.33713C134.393 7.33713 135.321 7.45077 136.207 7.67804C137.101 7.90531 137.893 8.25759 138.582 8.73486C139.279 9.21213 139.829 9.82577 140.23 10.5758C140.632 11.3182 140.832 12.2083 140.832 13.2462V25.019H136.241V22.5985H136.105C135.825 23.144 135.45 23.625 134.98 24.0417C134.51 24.4508 133.946 24.7727 133.287 25.0076C132.628 25.2349 131.866 25.3485 131.003 25.3485ZM132.389 22.0076C133.101 22.0076 133.73 21.8674 134.276 21.5871C134.821 21.2993 135.249 20.9129 135.56 20.428C135.87 19.9432 136.026 19.394 136.026 18.7803V16.928C135.874 17.0265 135.666 17.1174 135.401 17.2008C135.143 17.2765 134.851 17.3485 134.526 17.4167C134.2 17.4773 133.874 17.5341 133.548 17.5871C133.223 17.6326 132.927 17.6743 132.662 17.7121C132.094 17.7955 131.598 17.928 131.173 18.1099C130.749 18.2917 130.42 18.5379 130.185 18.8485C129.95 19.1515 129.832 19.5303 129.832 19.9849C129.832 20.644 130.071 21.1477 130.548 21.4962C131.033 21.8371 131.647 22.0076 132.389 22.0076ZM153.872 7.56441V11.2008H143.361V7.56441H153.872ZM145.747 3.38259H150.588V19.6553C150.588 20.1023 150.656 20.4508 150.793 20.7008C150.929 20.9432 151.118 21.1136 151.361 21.2121C151.611 21.3106 151.899 21.3599 152.224 21.3599C152.452 21.3599 152.679 21.3409 152.906 21.303C153.134 21.2576 153.308 21.2235 153.429 21.2008L154.19 24.803C153.948 24.8788 153.607 24.9659 153.168 25.0644C152.728 25.1705 152.194 25.2349 151.565 25.2576C150.399 25.303 149.376 25.1477 148.497 24.7917C147.626 24.4356 146.948 23.8826 146.463 23.1326C145.978 22.3826 145.74 21.4356 145.747 20.2917V3.38259ZM164.793 25.3599C162.997 25.3599 161.452 24.9962 160.156 24.269C158.868 23.5341 157.876 22.4962 157.179 21.1553C156.482 19.8068 156.134 18.2121 156.134 16.3712C156.134 14.5758 156.482 13 157.179 11.644C157.876 10.2879 158.857 9.23107 160.122 8.4735C161.395 7.71592 162.887 7.33713 164.599 7.33713C165.751 7.33713 166.823 7.52274 167.815 7.89395C168.815 8.25759 169.687 8.80683 170.429 9.54168C171.179 10.2765 171.762 11.2008 172.179 12.3144C172.596 13.4205 172.804 14.7159 172.804 16.2008V17.5303H158.065V14.5303H168.247C168.247 13.8333 168.096 13.2159 167.793 12.678C167.49 12.1402 167.069 11.7197 166.531 11.4167C166.001 11.1061 165.384 10.9508 164.679 10.9508C163.944 10.9508 163.293 11.1212 162.724 11.4621C162.164 11.7955 161.724 12.2462 161.406 12.8144C161.088 13.375 160.925 14 160.918 14.6894V17.5417C160.918 18.4053 161.077 19.1515 161.395 19.7803C161.721 20.4091 162.179 20.894 162.77 21.2349C163.361 21.5758 164.062 21.7462 164.872 21.7462C165.41 21.7462 165.902 21.6705 166.349 21.519C166.796 21.3674 167.179 21.1402 167.497 20.8371C167.815 20.5341 168.058 20.1629 168.224 19.7235L172.702 20.019C172.474 21.0947 172.009 22.0341 171.304 22.8371C170.607 23.6326 169.705 24.2538 168.599 24.7008C167.501 25.1402 166.232 25.3599 164.793 25.3599Z" fill="black" fill-opacity="0.2"/>
</svg>
